<svg xmlns="http://www.w3.org/2000/svg" xmlns:xlink="http://www.w3.org/1999/xlink" version="1.1" x="0px" y="0px" viewBox="0 0 280 350" enable-background="new 0 0 280 280" xml:space="preserve"><g><path d="M140,12C69.418,12,12,69.421,12,140c0,70.58,57.419,128,128,128c70.579,0,128-57.42,128-128C268,69.421,210.578,12,140,12z    M140,47.973c20.581,0,39.401,6.068,53.911,16.095l-9.109,8.772l-1.197,1.152c-3.656-2.026-7.471-3.758-11.377-5.189   c-5.162-1.88-10.492-3.271-15.896-4.138c-2.912-0.454-5.842-0.754-8.775-0.926c0-4.068,0-7.048,0-8.394   c-5.033-0.179-10.073-0.179-15.107,0c0,1.346,0,4.325,0,8.395c-2.937,0.172-5.868,0.472-8.781,0.928   c-5.404,0.864-10.733,2.259-15.896,4.139c-3.903,1.431-7.716,3.162-11.372,5.189L95.2,72.84l-9.108-8.772   C100.602,54.041,119.418,47.973,140,47.973z M171.992,89.816c-0.119,0.614-0.186,1.358-0.203,1.948l-0.076,1.74l-0.154,3.478   l-0.525,11.812h-62.065l-0.526-11.812l-0.153-3.478l-0.078-1.738c-0.016-0.592-0.083-1.335-0.202-1.95   c-0.494-2.546-1.479-4.819-2.844-6.92c-0.35-0.522-0.725-1.028-1.15-1.512c-0.467-0.538-0.871-0.885-1.29-1.299l-2.508-2.415   l-2.509-2.416c3.373-1.994,6.902-3.739,10.538-5.215c5.014-2.027,10.23-3.58,15.555-4.631c2.854-0.582,5.742-1.015,8.647-1.319   c0,2.104,0,4.482,0,7.079c-5.28,0.188-10.554,0.57-15.813,1.151c0,5.029,0,10.057,0,15.089c5.259-0.582,10.532-0.967,15.813-1.154   c0,5.274,0,10.549,0,15.822c5.034-0.179,10.074-0.179,15.107,0c0-5.273,0-10.548,0-15.822c5.281,0.188,10.555,0.572,15.813,1.154   c0-5.032,0-10.06,0-15.089c-5.258-0.581-10.531-0.964-15.813-1.151c0-2.595,0-4.975,0-7.078c2.902,0.307,5.787,0.738,8.641,1.321   c5.326,1.05,10.541,2.604,15.555,4.63c3.637,1.476,7.166,3.223,10.539,5.217l-2.504,2.412l-2.506,2.415   c-0.422,0.416-0.824,0.761-1.291,1.299c-0.426,0.483-0.803,0.989-1.15,1.512C173.471,84.997,172.486,87.271,171.992,89.816z    M188.98,114.389c5.445,0,9.877,4.431,9.877,9.876v60.949c0,5.447-4.432,9.879-9.877,9.879H91.019   c-5.445,0-9.877-4.432-9.877-9.879v-60.949c0-5.445,4.432-9.876,9.877-9.876H188.98z M54.481,131.1   c-1.662,0.875-3.214,1.932-4.594,3.166c-3.854,3.4-6.406,8.104-7.01,12.974c1.319-4.732,4.432-8.731,8.329-11.26   c1.043-0.684,2.143-1.255,3.274-1.731v33.902c-1.133-0.477-2.231-1.049-3.274-1.73c-3.899-2.529-7.011-6.529-8.33-11.261   c0.604,4.87,3.157,9.573,7.01,12.976c1.383,1.229,2.933,2.291,4.595,3.166v3.056c-10.589-3.45-18.227-12.999-18.227-24.218   c0-11.218,7.638-20.766,18.227-24.215V131.1z M56.956,187.51v-72.382c0-20.41,11.274-38.68,29.043-50.995l8.307,9.56l0.881,1.016   C89.661,77.904,84.51,81.773,80,86.371c-7.755,7.918-13.484,18.112-15.4,29.251c-0.483,2.769-0.733,5.599-0.748,8.401l-0.072,8.174   l-0.143,16.352l-0.231,32.7l-0.043,8.176l-0.011,2.043c0,0.68-0.017,1.345,0.012,2.126c0.056,1.523,0.253,3.008,0.592,4.479   c1.184,5.184,4.188,9.894,8.322,13.228C63.265,207.148,56.956,198.041,56.956,187.51z M188.395,253.146   c-0.027-0.051-0.045-0.105-0.076-0.155l-0.043-0.065c-1.982-3.145-4.631-5.924-7.537-8.151c-2.924-2.238-6.145-4.004-9.492-5.356   c-2.023-0.816-4.098-1.463-6.195-1.985c-0.168,0.385-0.383,0.769-0.641,1.151c2.086,0.702,4.119,1.531,6.068,2.523   c3.086,1.57,5.967,3.508,8.475,5.803c2.434,2.241,4.461,4.773,5.986,7.656c-13.922,5.467-29.076,8.486-44.94,8.486   c-15.862,0-31.016-3.02-44.938-8.486c1.492-2.832,3.553-5.422,5.986-7.658c2.509-2.293,5.389-4.23,8.475-5.801   c1.948-0.992,3.982-1.821,6.066-2.523c-0.26-0.382-0.474-0.767-0.642-1.15c-2.098,0.521-4.168,1.169-6.192,1.984   c-3.349,1.353-6.568,3.118-9.492,5.356c-2.914,2.242-5.535,4.971-7.559,8.187c-0.027,0.045-0.057,0.094-0.08,0.142   c-0.008,0.016-0.01,0.029-0.018,0.044c-4.067-1.741-8.027-3.684-11.855-5.837c6.986-8.278,19.387-13.787,33.529-13.787h1.575   c0.093-0.199,0.199-0.392,0.326-0.576c-0.468-0.87-0.706-1.742-0.708-2.604c0-0.862,0.245-1.651,0.708-2.324   c-0.468-0.872-0.706-1.742-0.708-2.606c0-0.861,0.245-1.649,0.708-2.321c-0.468-0.871-0.706-1.743-0.708-2.607   c0-0.862,0.245-1.65,0.708-2.323c-0.274-0.51-0.46-1.02-0.575-1.528l2.626,0.005c0.124,0.377,0.321,0.712,0.521,0.998   c0.74,0.989,1.672,1.708,2.628,2.358c1.93,1.281,4.038,2.217,6.192,2.964c2.162,0.739,4.393,1.241,6.64,1.573   c2.249,0.328,4.523,0.457,6.786,0.374c2.261,0.082,4.537-0.046,6.787-0.376c2.246-0.331,4.479-0.834,6.639-1.572   c2.156-0.749,4.264-1.684,6.193-2.965c0.957-0.651,1.889-1.37,2.629-2.359c0.201-0.283,0.396-0.618,0.521-0.993l2.625-0.005   c-0.115,0.508-0.301,1.018-0.576,1.527c0.465,0.672,0.709,1.46,0.709,2.322c0,0.861-0.238,1.734-0.709,2.607   c0.465,0.673,0.709,1.46,0.709,2.321c0,0.862-0.238,1.734-0.709,2.609c0.465,0.671,0.709,1.46,0.709,2.321   c0,0.859-0.238,1.731-0.707,2.604c0.127,0.185,0.232,0.377,0.326,0.576h1.578c14.141,0,26.541,5.509,33.527,13.787   C196.422,249.463,192.461,251.405,188.395,253.146z M151.117,219.134c-3.609,1.024-7.369,1.552-11.109,1.499   c-3.771,0.051-7.509-0.475-11.125-1.501c-2.16-0.631-4.315-1.426-6.296-2.486l0.612,0.001c1.099,0.527,2.228,0.982,3.373,1.381   c2.162,0.738,4.393,1.241,6.64,1.572c2.249,0.33,4.523,0.458,6.786,0.374c2.261,0.082,4.537-0.045,6.787-0.375   c2.246-0.331,4.479-0.836,6.639-1.573c1.145-0.396,2.271-0.852,3.367-1.377l0.623-0.002   C155.434,217.707,153.277,218.502,151.117,219.134z M159.371,217.23c0.336-0.009,0.766,0.125,0.598,0.352   c-1.441,1.941-9.744,4.962-12.098,4.402c-0.27-0.064-0.031-0.445,0.234-0.652L159.371,217.23z M131.895,221.332   c0.261,0.207,0.502,0.588,0.232,0.652c-2.352,0.56-10.656-2.461-12.098-4.402c-0.164-0.227,0.262-0.36,0.6-0.352L131.895,221.332z    M203.404,208.672c-2.037,1.327-4.316,2.271-6.688,2.76c-1.184,0.242-2.398,0.372-3.605,0.387l-4.059-0.004l-98.099,0.003   l-4.056,0.003c-1.212-0.013-2.422-0.142-3.608-0.384c-2.372-0.489-4.654-1.424-6.69-2.755c-4.083-2.651-7.124-6.899-8.258-11.646   c-0.288-1.179-0.46-2.407-0.519-3.606c-0.03-0.58-0.023-1.279-0.028-1.962l-0.012-2.043l-0.044-8.176l-0.232-32.7l-0.141-16.352   l-0.072-8.174c-0.023-2.647,0.142-5.27,0.528-7.879c1.527-10.461,6.688-20.273,13.953-28.094   c4.252-4.648,9.212-8.636,14.601-11.975l2.496,2.873l2.283,2.628c0.369,0.433,0.801,0.896,1.057,1.266   c0.306,0.418,0.583,0.87,0.838,1.339c1.007,1.877,1.697,4.025,1.896,6.066c0.049,0.532,0.049,0.95,0.02,1.519l-0.078,1.738   l-0.154,3.478l-0.525,11.812H91.019c-8.51,0-15.473,6.963-15.473,15.471v60.949c0,8.512,6.963,15.474,15.473,15.474h97.961   c8.512,0,15.475-6.962,15.475-15.474v-60.949c0-8.508-6.963-15.471-15.475-15.471h-13.188l-0.525-11.812l-0.152-3.478l-0.078-1.74   c-0.031-0.566-0.031-0.984,0.018-1.517c0.199-2.042,0.891-4.189,1.896-6.066c0.254-0.469,0.533-0.921,0.84-1.339   c0.256-0.37,0.686-0.833,1.057-1.266l2.283-2.628l2.49-2.868c5.389,3.338,10.348,7.325,14.598,11.971   c7.268,7.819,12.426,17.63,13.955,28.088c0.186,1.303,0.34,2.612,0.416,3.926c0.055,0.661,0.07,1.304,0.096,1.949l0.018,2.003   l-0.07,8.176l-0.145,16.35l-0.23,32.7l-0.043,8.176l-0.01,2.043c-0.006,0.692,0,1.367-0.029,1.952   c-0.059,1.22-0.23,2.432-0.518,3.616C210.525,201.773,207.486,206.022,203.404,208.672z M223.047,187.51   c0,10.517-6.293,19.614-15.289,23.773c4.121-3.334,7.117-8.037,8.297-13.215c0.34-1.469,0.537-2.968,0.592-4.471   c0.029-0.777,0.012-1.467,0.01-2.136l-0.01-2.043l-0.043-8.176l-0.23-32.7l-0.145-16.35l-0.07-8.176l-0.055-2.083   c-0.039-0.716-0.072-1.436-0.143-2.132c-0.119-1.404-0.316-2.801-0.551-4.188c-0.965-5.552-2.871-10.909-5.512-15.839   c-2.656-4.927-6.018-9.439-9.896-13.415c-4.508-4.595-9.658-8.462-15.184-11.656l0.879-1.012l8.307-9.56   c17.768,12.316,29.043,30.585,29.043,50.995V187.51z M225.52,174.356v-3.058c1.662-0.875,3.211-1.936,4.594-3.164   c3.854-3.402,6.406-8.105,7.01-12.976c-1.322,4.731-4.432,8.73-8.332,11.26c-1.041,0.681-2.139,1.254-3.271,1.73V134.25   c1.133,0.475,2.23,1.047,3.271,1.731c3.9,2.526,7.01,6.525,8.332,11.258c-0.605-4.87-3.156-9.573-7.01-12.974   c-1.379-1.234-2.93-2.291-4.594-3.165v-5.177c10.59,3.45,18.225,12.997,18.225,24.215S236.109,170.904,225.52,174.356z" fill="#3370b8"/><path d="M161.605,233.816l-0.301-0.156l-0.27,0.236c-2.766,2.427-6.34,3.908-9.918,4.955c-3.607,1.025-7.369,1.554-11.109,1.5   c-3.771,0.051-7.509-0.475-11.125-1.501c-3.578-1.048-7.153-2.527-9.916-4.955l-0.269-0.235l-0.306,0.153   c-0.546,0.276-1.213,0.829-1.282,1.65c-0.067,0.776,0.297,1.395,0.642,1.887c0.738,0.989,1.671,1.709,2.628,2.358   c1.93,1.281,4.036,2.216,6.192,2.965c2.161,0.738,4.393,1.242,6.64,1.573c2.249,0.33,4.523,0.457,6.786,0.374   c2.261,0.082,4.537-0.044,6.787-0.376c2.246-0.331,4.479-0.835,6.639-1.572c2.156-0.749,4.264-1.683,6.193-2.965   c0.957-0.651,1.889-1.37,2.629-2.359c0.344-0.49,0.709-1.112,0.643-1.872C162.813,234.632,162.154,234.1,161.605,233.816z    M132.127,241.702c-2.352,0.56-10.658-2.463-12.098-4.403c-0.167-0.224,0.262-0.36,0.6-0.351l11.266,4.099   C132.156,241.256,132.395,241.636,132.127,241.702z M159.971,237.299c-1.441,1.94-9.746,4.963-12.098,4.403   c-0.271-0.066-0.031-0.446,0.232-0.655l11.266-4.099C159.707,236.938,160.137,237.075,159.971,237.299z" fill="#3370b8"/><path d="M161.605,228.888l-0.301-0.155l-0.271,0.236c-2.762,2.427-6.338,3.907-9.916,4.953c-3.607,1.025-7.369,1.552-11.109,1.5   c-3.771,0.049-7.509-0.475-11.125-1.5c-3.578-1.047-7.155-2.526-9.916-4.955l-0.269-0.234l-0.304,0.152   c-0.548,0.274-1.215,0.829-1.284,1.649c-0.069,0.776,0.297,1.396,0.642,1.887c0.738,0.989,1.671,1.708,2.628,2.359   c1.93,1.282,4.036,2.216,6.192,2.966c2.161,0.737,4.393,1.241,6.64,1.571c2.249,0.33,4.523,0.458,6.786,0.374   c2.261,0.083,4.537-0.045,6.787-0.375c2.248-0.33,4.479-0.836,6.641-1.574c2.156-0.749,4.262-1.683,6.191-2.965   c0.957-0.651,1.891-1.369,2.629-2.358c0.346-0.489,0.707-1.116,0.645-1.872C162.816,229.697,162.152,229.17,161.605,228.888z    M132.127,236.774c-2.351,0.563-10.65-2.464-12.098-4.404c-0.167-0.224,0.262-0.359,0.6-0.349l11.265,4.1   C132.156,236.331,132.395,236.709,132.127,236.774z M159.971,232.37c-1.449,1.94-9.748,4.968-12.1,4.404   c-0.27-0.065-0.031-0.443,0.234-0.653l11.266-4.1C159.707,232.011,160.137,232.146,159.971,232.37z" fill="#3370b8"/><path d="M120.38,229.852c1.93,1.281,4.036,2.217,6.192,2.964c2.161,0.739,4.393,1.241,6.64,1.572   c2.249,0.33,4.523,0.458,6.786,0.374c2.261,0.083,4.537-0.044,6.787-0.374c2.246-0.332,4.479-0.836,6.639-1.573   c2.156-0.748,4.264-1.683,6.193-2.965c0.957-0.65,1.889-1.369,2.629-2.357c0.344-0.492,0.709-1.113,0.643-1.874   c-0.076-0.845-0.734-1.376-1.283-1.659l-0.301-0.156l-0.27,0.237c-2.766,2.425-6.34,3.907-9.918,4.953   c-3.609,1.023-7.369,1.552-11.109,1.499c-3.771,0.05-7.509-0.476-11.125-1.501c-3.578-1.047-7.153-2.526-9.916-4.953l-0.269-0.235   l-0.306,0.154c-0.546,0.274-1.213,0.828-1.282,1.648c-0.067,0.776,0.297,1.395,0.642,1.887   C118.493,228.481,119.423,229.201,120.38,229.852z M148.105,231.188l11.266-4.101c0.336-0.007,0.766,0.126,0.6,0.35   c-1.441,1.943-9.744,4.966-12.1,4.405C147.602,231.777,147.842,231.398,148.105,231.188z M120.629,227.088l11.265,4.101   c0.262,0.21,0.501,0.589,0.233,0.654c-2.354,0.561-10.656-2.462-12.098-4.405C119.863,227.214,120.292,227.081,120.629,227.088z" fill="#3370b8"/><path d="M120.38,224.922c1.931,1.282,4.038,2.217,6.192,2.965c2.162,0.737,4.393,1.24,6.64,1.571   c2.249,0.329,4.523,0.456,6.786,0.373c2.261,0.083,4.537-0.045,6.787-0.373c2.246-0.331,4.479-0.837,6.639-1.573   c2.156-0.748,4.264-1.684,6.193-2.964c0.957-0.65,1.887-1.37,2.629-2.356c0.344-0.492,0.707-1.113,0.643-1.876   c-0.074-0.843-0.734-1.376-1.283-1.657l-0.301-0.155l-0.27,0.236c-2.766,2.424-6.342,3.904-9.918,4.951   c-3.609,1.024-7.369,1.552-11.109,1.5c-3.771,0.05-7.509-0.476-11.125-1.501c-3.578-1.047-7.153-2.526-9.916-4.953l-0.268-0.233   l-0.305,0.151c-0.548,0.273-1.218,0.828-1.284,1.651c-0.067,0.775,0.298,1.393,0.642,1.886   C118.493,223.553,119.424,224.271,120.38,224.922z M148.105,226.262l11.266-4.1c0.336-0.01,0.766,0.126,0.6,0.348   c-1.443,1.942-9.746,4.966-12.098,4.406C147.602,226.852,147.84,226.473,148.105,226.262z M120.629,222.162l11.265,4.1   c0.262,0.211,0.501,0.59,0.233,0.654c-2.352,0.56-10.656-2.464-12.098-4.406C119.866,222.288,120.29,222.152,120.629,222.162z" fill="#3370b8"/><path d="M84.234,124.265v60.949c0,3.742,3.044,6.787,6.785,6.787h97.961c3.742,0,6.785-3.045,6.785-6.787v-60.949   c0-3.74-3.043-6.784-6.785-6.784H91.019C87.278,117.48,84.234,120.524,84.234,124.265z M156.514,159.231   c0-8.212,6.658-14.87,14.871-14.87c8.211,0,14.867,6.658,14.867,14.87v3.001c0,1.588-1.297,2.885-2.883,2.885h-23.971   c-1.586,0-2.885-1.297-2.885-2.885V159.231z M93.75,159.231c0-8.212,6.655-14.87,14.868-14.87c8.212,0,14.869,6.658,14.869,14.87   v3.001c0,1.588-1.296,2.885-2.882,2.885H96.635c-1.587,0-2.885-1.297-2.885-2.885V159.231z" fill="#3370b8"/></g></svg>